<?xml version="1.0" encoding="UTF-8"?>
<svg id="Capa_1" data-name="Capa 1" xmlns="http://www.w3.org/2000/svg" version="1.1" xmlns:xlink="http://www.w3.org/1999/xlink" viewBox="0 0 1259.9 400">
  <defs>
    <style>
      .cls-1 {
        fill: url(#Degradado_sin_nombre_76-4);
      }

      .cls-1, .cls-2, .cls-3, .cls-4, .cls-5, .cls-6 {
        stroke-width: 0px;
      }

      .cls-2 {
        fill: url(#Degradado_sin_nombre_76-3);
      }

      .cls-3 {
        fill: url(#Degradado_sin_nombre_76-5);
      }

      .cls-4 {
        fill: url(#Degradado_sin_nombre_76);
      }

      .cls-5 {
        fill: url(#Degradado_sin_nombre_76-2);
      }

      .cls-6 {
        fill: url(#Degradado_sin_nombre_25);
      }
    </style>
    <linearGradient id="Degradado_sin_nombre_25" data-name="Degradado sin nombre 25" x1="963" y1="234.7" x2="963" y2="234.7" gradientUnits="userSpaceOnUse">
      <stop offset="0" stop-color="#266077"/>
      <stop offset=".3" stop-color="#27688a" stop-opacity=".7"/>
      <stop offset="1" stop-color="#2581c4" stop-opacity="0"/>
    </linearGradient>
    <linearGradient id="Degradado_sin_nombre_76" data-name="Degradado sin nombre 76" x1="144.9" y1="155.1" x2="1165.5" y2="170.9" gradientUnits="userSpaceOnUse">
      <stop offset="0" stop-color="#28677d"/>
      <stop offset=".3" stop-color="#3ba3a4"/>
      <stop offset=".4" stop-color="#97447a"/>
      <stop offset=".8" stop-color="#e27667"/>
      <stop offset="1" stop-color="#e98868"/>
    </linearGradient>
    <linearGradient id="Degradado_sin_nombre_76-2" data-name="Degradado sin nombre 76" x1="144.1" y1="203.5" x2="1164.8" y2="219.3" xlink:href="#Degradado_sin_nombre_76"/>
    <linearGradient id="Degradado_sin_nombre_76-3" data-name="Degradado sin nombre 76" x1="142.9" y1="284.3" x2="1163.5" y2="300.1" xlink:href="#Degradado_sin_nombre_76"/>
    <linearGradient id="Degradado_sin_nombre_76-4" data-name="Degradado sin nombre 76" x1="143.8" y1="228.6" x2="1164.4" y2="244.3" xlink:href="#Degradado_sin_nombre_76"/>
    <linearGradient id="Degradado_sin_nombre_76-5" data-name="Degradado sin nombre 76" x1="144.3" y1="195.1" x2="1164.9" y2="210.8" xlink:href="#Degradado_sin_nombre_76"/>
  </defs>
  <line class="cls-6" x1="963" y1="233.8" x2="963" y2="235.7"/>
  <g>
    <path class="cls-4" d="M381.2,196.8c18.7,1.9,39.9-19.3,38-38,1.9-18.7-19.3-39.9-38-38-18.7-1.9-39.9,19.3-38,38-1.9,18.7,19.3,39.9,38,38Z"/>
    <path class="cls-5" d="M331.2,234.8V62h-76v65.3c-42.2-17.6-103.3.8-128.9,38.7-29.5,34.9-30.6,98.7-2.2,134.6,24.3,38.7,84.8,59,127.6,42.8,44.3-11.5,82-63,79.5-108.7ZM217.2,272.8c-18.7,1.9-39.9-19.3-38-38-1.9-18.7,19.3-39.9,38-38,18.7-1.9,39.9,19.3,38,38,1.9,18.7-19.3,39.9-38,38Z"/>
    <path class="cls-2" d="M381.2,227.2h38v121.6h-76v-83.6c-1.9-18.7,19.3-39.9,38-38Z"/>
    <path class="cls-1" d="M574.1,261.7l53.7,53.7c-22.3,22.7-53.9,33.8-80.6,33.4-26.6.7-58.6-11.4-80.6-33.4s-34.1-54-33.4-80.6c-.7-26.6,11.4-58.6,33.4-80.6s54-34.1,80.6-33.4c26.7-.4,58.3,10.7,80.6,33.4l-53.7,53.7c-9.6-10.5-28.5-14.3-41.4-8.2-13.4,4.9-24.1,20.8-23.5,35.1-.6,14.3,10,30.2,23.5,35.1,12.9,6,31.8,2.3,41.4-8.2Z"/>
    <path class="cls-3" d="M1148.6,166.4c-21.9-30.2-59.9-46.3-91.2-45.6-12.2,0-25.2,2-38,6.5v-6.5h-76v114c.1,9.7-4.2,20.1-11.1,26.9-9.6,10.5-28.5,14.3-41.4,8.2-13.4-4.9-24.1-20.8-23.5-35.1v-38h38v-76h-38v-58.8h-76v172.8c.1,9.7-4.2,20.1-11.1,26.9-9.6,10.5-28.5,14.3-41.4,8.2-13.4-4.9-24.1-20.8-23.5-35.1v-38h38v-76h-38v-58.8h-76v172.8c-1.7,41.9,28.5,88.6,67.5,104.1,37.5,18.7,92.5,10.1,122.5-19.1,28.3,27,77.6,36.8,114,22.5v6.5h76v-114c-.8-15.1,11.4-32,26-36.1,14-5.5,34,.7,42.4,13.3l60.8-45.6Z"/>
  </g>
</svg>